<svg width="416" height="484" viewBox="0 0 416 484" fill="none" xmlns="http://www.w3.org/2000/svg">
<path d="M112.044 37.451C147.908 34.5032 183.535 28.0314 219.335 24.182C248.271 21.0707 276.842 16.2793 305.461 11.0759" stroke="white" stroke-width="10" stroke-linecap="round"/>
<path d="M112.044 55.0342C112.044 90.1184 107.759 124.95 107.648 160.046C107.56 187.56 107.648 215.076 107.648 242.59" stroke="white" stroke-width="10" stroke-linecap="round"/>
<path d="M107.648 260.173C124.381 258.351 140.555 254.657 157.06 251.463C178.839 247.247 200.643 245.407 222.754 244.055C254.26 242.128 285.748 239.586 317.183 236.729" stroke="white" stroke-width="10" stroke-linecap="round"/>
<path d="M321.578 16.9373C316.766 23.3544 318.482 34.7983 318.973 42.1726C320.59 66.4274 322.392 90.6971 324.183 114.948C326.329 143.999 329.558 172.998 331.51 202.051C331.815 206.602 330.061 215.906 333.301 219.146" stroke="white" stroke-width="10" stroke-linecap="round"/>
<path d="M169.189 88.7354V107.784" stroke="white" stroke-width="10" stroke-linecap="round"/>
<path d="M255.641 77.0134C255.641 84.4074 257.106 91.589 257.106 98.9926" stroke="white" stroke-width="10" stroke-linecap="round"/>
<path d="M166.259 166.395C187.774 175.498 210.319 177.111 233.173 172.094C246.577 169.152 255.131 161.045 264.433 151.743" stroke="white" stroke-width="10" stroke-linecap="round"/>
<path d="M25.5922 279.223C21.5122 303.702 -1.474 350.02 32.9186 363.395C44.7405 367.992 62.1209 358.647 73.5394 356.231C85.9033 353.616 85.484 345.395 85.6687 333.764C85.9944 313.243 81.8026 296.498 60.1891 288.828C55.713 287.24 49.8716 284.699 45.3734 283.7C41.0406 282.737 37.2577 283.889 32.9186 282.153" stroke="white" stroke-width="10" stroke-linecap="round"/>
<path d="M27.0574 276.291C27.0574 268.131 28.5227 259.987 28.5227 251.707C28.5227 250.811 27.8576 245.57 28.8483 244.951C32.0288 242.963 39.1699 247.455 41.3846 249.591C50.3231 258.21 51.9672 267.573 51.9672 279.222" stroke="white" stroke-width="10" stroke-linecap="round"/>
<path d="M398.94 279.533C403.02 304.012 426.006 350.33 391.614 363.705C379.792 368.302 362.411 358.957 350.993 356.541C338.629 353.926 339.048 345.705 338.864 334.074C338.538 313.553 342.73 296.808 364.343 289.138C368.819 287.55 374.661 285.01 379.159 284.01C383.492 283.047 387.274 284.199 391.614 282.463" stroke="white" stroke-width="10" stroke-linecap="round"/>
<path d="M397.474 276.603C397.474 268.442 396.009 260.299 396.009 252.019C396.009 251.123 396.674 245.881 395.683 245.262C392.503 243.274 385.362 247.767 383.147 249.902C374.209 258.522 372.564 267.884 372.564 279.533" stroke="white" stroke-width="10" stroke-linecap="round"/>
<path d="M144.28 268.965C139.568 285.719 139.757 304.304 138.419 321.552C136.331 348.457 133.222 375.244 131.092 402.143C129.878 417.479 126.862 432.999 126.696 448.38C126.587 458.576 127.053 468.479 125.231 478.5" stroke="white" stroke-width="10" stroke-linecap="round"/>
<path d="M299.599 258.708C305.035 329.375 330.37 398.493 330.37 469.709" stroke="white" stroke-width="10" stroke-linecap="round"/>
<path d="M166.259 370.069C186.112 370.069 205.885 371.771 225.766 371.453C248.821 371.084 274.401 371.746 296.669 365.673" stroke="white" stroke-width="10" stroke-linecap="round"/>
<path d="M173.585 337.833C190.416 321.583 210.092 308.652 226.661 292.083C238.065 280.679 248.65 268.629 260.037 257.242" stroke="white" stroke-width="10" stroke-linecap="round"/>
<path d="M150.141 427.215C169.566 428.904 187.445 432.31 207.287 430.715C236.31 428.383 265.282 422.949 293.738 416.958" stroke="white" stroke-width="10" stroke-linecap="round"/>
<path d="M120.835 270.43C107.883 270.586 97.6018 272.181 87.4594 280.687C83.1901 284.268 74.2382 290.068 72.481 295.34" stroke="white" stroke-width="10" stroke-linecap="round"/>
<path d="M98.856 359.812C111.991 358.561 125.553 351.306 138.419 348.09" stroke="white" stroke-width="10" stroke-linecap="round"/>
<path d="M315.717 249.917C329.942 250.933 345.323 254.612 355.28 264.569" stroke="white" stroke-width="10" stroke-linecap="round"/>
<path d="M317.182 334.902C322.136 334.902 326.244 334.739 330.37 337.833" stroke="white" stroke-width="10" stroke-linecap="round"/>
<path d="M102.75 31.8748C138.615 28.927 174.242 22.4553 210.041 18.6059C238.977 15.4945 267.549 10.7031 296.167 5.49976" stroke="#0B2658" stroke-width="10" stroke-linecap="round"/>
<path d="M102.75 49.4585C102.75 84.5427 98.4661 119.374 98.3544 154.47C98.2667 181.984 98.3544 209.5 98.3544 237.014" stroke="#0B2658" stroke-width="10" stroke-linecap="round"/>
<path d="M98.3544 254.597C115.088 252.775 131.262 249.082 147.767 245.887C169.546 241.672 191.35 239.832 213.46 238.479C244.967 236.552 276.454 234.011 307.89 231.153" stroke="#0B2658" stroke-width="10" stroke-linecap="round"/>
<path d="M312.285 11.3611C307.472 17.7782 309.188 29.2221 309.68 36.5965C311.297 60.8512 313.098 85.121 314.89 109.372C317.036 138.423 320.265 167.422 322.216 196.475C322.522 201.026 320.767 210.33 324.007 213.57" stroke="#0B2658" stroke-width="10" stroke-linecap="round"/>
<path d="M159.896 83.1597V102.208" stroke="#0B2658" stroke-width="10" stroke-linecap="round"/>
<path d="M246.347 71.4375C246.347 78.8314 247.813 86.0131 247.813 93.4167" stroke="#0B2658" stroke-width="10" stroke-linecap="round"/>
<path d="M156.966 160.819C178.481 169.922 201.026 171.534 223.88 166.518C237.283 163.575 245.837 155.469 255.139 146.167" stroke="#0B2658" stroke-width="10" stroke-linecap="round"/>
<path d="M16.2988 273.646C12.2188 298.125 -10.7674 344.443 23.6252 357.818C35.4472 362.415 52.8276 353.07 64.246 350.654C76.6099 348.039 76.1907 339.817 76.3753 328.187C76.701 307.665 72.5092 290.921 50.8957 283.251C46.4196 281.663 40.5782 279.122 36.0801 278.123C31.7473 277.16 27.9644 278.312 23.6252 276.576" stroke="#0B2658" stroke-width="10" stroke-linecap="round"/>
<path d="M17.764 270.715C17.764 262.554 19.2293 254.411 19.2293 246.131C19.2293 245.235 18.5643 239.994 19.5549 239.375C22.7354 237.387 29.8765 241.879 32.0912 244.015C41.0298 252.634 42.6738 261.997 42.6738 273.646" stroke="#0B2658" stroke-width="10" stroke-linecap="round"/>
<path d="M389.647 273.957C393.727 298.436 416.713 344.754 382.32 358.129C370.498 362.726 353.118 353.381 341.699 350.965C329.336 348.35 329.755 340.129 329.57 328.498C329.244 307.976 333.436 291.232 355.05 283.562C359.526 281.974 365.367 279.433 369.865 278.434C374.198 277.471 377.981 278.623 382.32 276.887" stroke="#0B2658" stroke-width="10" stroke-linecap="round"/>
<path d="M388.181 271.026C388.181 262.865 386.716 254.722 386.716 246.442C386.716 245.546 387.381 240.305 386.39 239.686C383.21 237.698 376.068 242.19 373.854 244.326C364.915 252.945 363.271 262.308 363.271 273.957" stroke="#0B2658" stroke-width="10" stroke-linecap="round"/>
<path d="M134.986 263.389C130.274 280.144 130.463 298.728 129.125 315.976C127.038 342.881 123.928 369.669 121.799 396.567C120.585 411.904 117.568 427.423 117.403 442.805C117.293 453 117.76 462.903 115.938 472.924" stroke="#0B2658" stroke-width="10" stroke-linecap="round"/>
<path d="M290.306 253.132C295.742 323.798 321.077 392.916 321.077 464.132" stroke="#0B2658" stroke-width="10" stroke-linecap="round"/>
<path d="M156.966 364.493C176.818 364.493 196.592 366.195 216.472 365.877C239.527 365.508 265.107 366.171 287.375 360.098" stroke="#0B2658" stroke-width="10" stroke-linecap="round"/>
<path d="M164.292 332.257C181.122 316.007 200.799 303.076 217.368 286.508C228.772 275.103 239.357 263.053 250.743 251.667" stroke="#0B2658" stroke-width="10" stroke-linecap="round"/>
<path d="M140.847 421.639C160.273 423.328 178.152 426.734 197.993 425.139C227.016 422.807 255.989 417.373 284.445 411.382" stroke="#0B2658" stroke-width="10" stroke-linecap="round"/>
<path d="M111.542 264.854C98.5896 265.01 88.3085 266.604 78.1661 275.111C73.8968 278.692 64.9449 284.492 63.1877 289.764" stroke="#0B2658" stroke-width="10" stroke-linecap="round"/>
<path d="M89.5627 354.236C102.698 352.985 116.26 345.73 129.125 342.514" stroke="#0B2658" stroke-width="10" stroke-linecap="round"/>
<path d="M306.424 244.34C320.649 245.356 336.029 249.036 345.986 258.993" stroke="#0B2658" stroke-width="10" stroke-linecap="round"/>
<path d="M307.889 329.327C312.843 329.327 316.951 329.163 321.077 332.257" stroke="#0B2658" stroke-width="10" stroke-linecap="round"/>
</svg>
